# xmcd
#
# Track frame offsets: 
#        150
#        15610
#        31537
#        47875
#        58507
#        74015
#        92125
#        104840
#        119920
#        134202
#        152307
#        168447
#        182515
#        199017
#
# Disc length: 2882 seconds
#
# Revision: 3
# Processed by: cddbd v1.5.2PL0 Copyright (c) Steve Scherf et al.
# Submitted via: ExactAudioCopyFreeDBPlugin 1.0
#
DISCID=c80b400e
DTITLE=Banda Black Rio - Serie Aplauso - Banda Black Rio
DYEAR=1900
DGENRE=Country
TTITLE0=Rio de Fevereiro
TTITLE1=Profissionalismo E Isso Ai
TTITLE2=Vidigal
TTITLE3=Cravo e Canela
TTITLE4=Melissa
TTITLE5=Amor Natural
TTITLE6=Chega Mais (Imaginei Voce Dancando)
TTITLE7=Tem Que ser Agora
TTITLE8=Subindo o Morro
TTITLE9=Expresso Madureira
TTITLE10=Tico-tico no Fuba
TTITLE11=Gafieira Universal
TTITLE12=Saci Perere
TTITLE13=Miss Cheryl
EXTD=
EXTT0=
EXTT1=
EXTT2=
EXTT3=
EXTT4=
EXTT5=
EXTT6=
EXTT7=
EXTT8=
EXTT9=
EXTT10=
EXTT11=
EXTT12=
EXTT13=
PLAYORDER=
